# xmcd CD database file
# Copyright (C) 1996 Ti Kan
#
# Track frame offsets:
# 	187
# 	14902
# 	31772
# 	48670
# 	64662
# 	80062
# 	94312
# 	107147
# 	123000
# 	137442
# 	152957
# 	167850
#
# Disc length: 2489 seconds
#
# Revision: 1
# Processed by: cddbd v1.4b41PL1 Copyright (c) Steve Scherf et al.
# Submitted via: DiscPlay 3.4.1
#
DISCID=a109b70c
DTITLE=Shenandoah - Best of Shenandoah
DYEAR=1900
DGENRE=
TTITLE0=Janie Baker's Love Slave
TTITLE1=I Want to be Loved Like That
TTITLE2=Wednesday Night Prayer Meeting
TTITLE3=Leavin's Been A Long Time Comin'
TTITLE4=Same Old Heart
TTITLE5=Rock My Baby
TTITLE6=if Bubba Can Dance (I Can Too)
TTITLE7=Hey Mister (I Need This Job)
TTITLE8=One Kind of Woman I Like
TTITLE9=I'll Go Down Loving You
TTITLE10=Nickel In The Well
TTITLE11=Under The Kudzu
EXTD=
EXTT0=
EXTT1=
EXTT2=
EXTT3=
EXTT4=
EXTT5=
EXTT6=
EXTT7=
EXTT8=
EXTT9=
EXTT10=
EXTT11=
PLAYORDER=
